<svg version="1.1" id="Layer_1" xmlns="http://www.w3.org/2000/svg" xmlns:xlink="http://www.w3.org/1999/xlink" x="0px" y="0px"
	 width="100%" viewBox="0 0 244 208" enable-background="new 0 0 244 208" xml:space="preserve">
<path fill="#FBFCFC" opacity="1.000000" stroke="none" 
	d="
M171.000000,209.000000 
	C114.000000,209.000000 57.500008,209.000000 1.000008,209.000000 
	C1.000005,139.666672 1.000005,70.333351 1.000003,1.000017 
	C82.333321,1.000011 163.666641,1.000011 244.999969,1.000006 
	C244.999985,70.333321 244.999985,139.666641 245.000000,208.999969 
	C220.500000,209.000000 196.000000,209.000000 171.000000,209.000000 
M194.125565,63.918438 
	C194.125565,63.918438 194.242859,63.873116 194.237122,63.213821 
	C193.930801,62.643799 193.624481,62.073780 193.238693,60.772434 
	C191.315750,55.472275 189.473694,50.140167 187.403229,44.898281 
	C186.976852,43.818848 185.759735,42.460499 184.793701,42.363838 
	C183.950134,42.279430 182.481308,43.610962 182.089691,44.625954 
	C179.526794,51.268772 177.181625,57.995602 174.207291,65.145966 
	C169.145050,79.089790 164.082809,93.033623 158.803543,107.458099 
	C158.730896,107.800407 158.658234,108.142715 158.105850,108.997108 
	C157.710709,110.311043 157.315552,111.624977 156.413712,113.518494 
	C155.965042,115.947098 155.153961,118.371880 155.128281,120.804947 
	C154.992859,133.636810 155.055130,146.470779 155.049606,159.304016 
	C155.048126,162.751648 155.049393,166.199265 155.049393,169.767914 
	C175.074219,169.767914 194.449783,169.767914 214.194244,169.767914 
	C214.194244,155.055359 213.972214,140.740921 214.294266,126.438736 
	C214.440460,119.946922 213.501007,113.881271 210.809845,107.310944 
	C210.180679,105.595764 209.572220,103.872650 208.919022,102.166672 
	C204.299240,90.101105 199.670258,78.039062 194.996933,65.469582 
	C194.939041,65.310272 194.881149,65.150955 194.853394,64.494255 
	C194.773972,64.129242 194.553055,63.901440 194.125565,63.918438 
M119.467163,167.060272 
	C135.975037,160.515289 145.468750,147.963852 146.717468,130.728897 
	C148.334412,108.411888 136.940598,93.435242 115.404373,84.984497 
	C119.650848,84.984497 122.821304,85.118484 125.977104,84.960236 
	C136.950378,84.409988 145.912842,75.466232 146.710297,64.389351 
	C147.475891,53.754799 139.696243,42.742817 128.752579,42.221741 
	C108.862518,41.274696 88.865295,41.221157 68.969337,42.089790 
	C42.573666,43.242195 22.759420,72.750008 34.131962,101.106773 
	C38.924847,113.057556 48.066784,120.768288 61.019962,125.773994 
	C56.780632,126.224075 53.745590,126.475471 50.730881,126.878845 
	C38.762150,128.480270 30.492466,137.987274 31.126278,149.354431 
	C31.787048,161.205109 41.393040,169.975586 53.795006,169.993195 
	C69.954414,170.016113 86.118233,170.212234 102.270905,169.881805 
	C107.784378,169.768997 113.269913,168.290527 119.467163,167.060272 
z"/>
<path fill="#010101" opacity="1.000000" stroke="none" 
	d="
M119.117691,167.248154 
	C113.269913,168.290527 107.784378,169.768997 102.270905,169.881805 
	C86.118233,170.212234 69.954414,170.016113 53.795006,169.993195 
	C41.393040,169.975586 31.787048,161.205109 31.126278,149.354431 
	C30.492466,137.987274 38.762150,128.480270 50.730881,126.878845 
	C53.745590,126.475471 56.780632,126.224075 61.019962,125.773994 
	C48.066784,120.768288 38.924847,113.057556 34.131962,101.106773 
	C22.759420,72.750008 42.573666,43.242195 68.969337,42.089790 
	C88.865295,41.221157 108.862518,41.274696 128.752579,42.221741 
	C139.696243,42.742817 147.475891,53.754799 146.710297,64.389351 
	C145.912842,75.466232 136.950378,84.409988 125.977104,84.960236 
	C122.821304,85.118484 119.650848,84.984497 115.404373,84.984497 
	C136.940598,93.435242 148.334412,108.411888 146.717468,130.728897 
	C145.468750,147.963852 135.975037,160.515289 119.117691,167.248154 
z"/>
<path fill="#30AEAE" opacity="1.000000" stroke="none" 
	d="
M158.585571,108.485031 
	C158.658234,108.142715 158.730896,107.800407 159.326736,107.226570 
	C160.951950,106.936661 162.053970,106.878281 163.379272,106.797798 
	C163.602554,106.775696 164.036377,106.890404 164.088303,107.253448 
	C165.415298,108.082390 166.690384,108.548271 167.983459,109.006348 
	C168.001450,108.998543 167.986221,109.034729 168.007843,109.338577 
	C168.441315,110.027214 168.853149,110.411987 169.136597,110.831177 
	C169.008194,110.865593 169.267380,110.817261 169.210083,111.136818 
	C169.532303,111.889671 169.911835,112.322975 170.196472,112.794495 
	C170.101608,112.832726 170.284332,112.768715 170.289627,113.020050 
	C170.434845,113.614250 170.688477,113.808968 171.254974,113.983704 
	C173.176666,111.911644 174.692627,109.503006 176.661545,107.551338 
	C181.963074,102.296242 188.093018,102.472153 193.204590,107.975517 
	C194.905869,109.807175 196.201828,112.015282 197.504684,113.806068 
	C199.312393,111.761139 201.040375,109.806389 203.160492,107.896637 
	C205.961380,107.976028 208.370102,108.010422 210.778839,108.044815 
	C213.501007,113.881271 214.440460,119.946922 214.294266,126.438736 
	C213.972214,140.740921 214.194244,155.055359 214.194244,169.767914 
	C194.449783,169.767914 175.074219,169.767914 155.049393,169.767914 
	C155.049393,166.199265 155.048126,162.751648 155.049606,159.304016 
	C155.055130,146.470779 154.992859,133.636810 155.128281,120.804947 
	C155.153961,118.371880 155.965042,115.947098 157.011597,113.082909 
	C157.934845,111.259895 158.260223,109.872467 158.585571,108.485031 
z"/>
<path fill="#38ADAD" opacity="1.000000" stroke="none" 
	d="
M194.823257,64.991646 
	C194.881149,65.150955 194.939041,65.310272 194.948151,66.037369 
	C194.290451,67.458145 193.681564,68.311119 192.600098,69.209290 
	C186.750595,69.242493 181.373688,69.230507 175.860779,68.851532 
	C175.404984,67.221359 175.085159,65.958176 174.765320,64.694984 
	C177.181625,57.995602 179.526794,51.268772 182.089691,44.625954 
	C182.481308,43.610962 183.950134,42.279430 184.793701,42.363838 
	C185.759735,42.460499 186.976852,43.818848 187.403229,44.898281 
	C189.473694,50.140167 191.315750,55.472275 193.199554,61.498192 
	C193.521240,62.773674 193.882050,63.323395 194.242859,63.873116 
	C194.242859,63.873116 194.125565,63.918438 194.151276,64.109772 
	C194.282867,64.633850 194.498291,64.864029 194.823257,64.991646 
z"/>
<path fill="#6AADAA" opacity="1.000000" stroke="none" 
	d="
M193.072662,69.164093 
	C193.681564,68.311119 194.290451,67.458145 194.971786,66.290527 
	C199.670258,78.039062 204.299240,90.101105 208.919022,102.166672 
	C209.572220,103.872650 210.180679,105.595764 210.794342,107.677879 
	C208.370102,108.010422 205.961380,107.976028 203.386475,107.615128 
	C204.497849,106.665039 205.775391,106.041466 207.240036,105.326576 
	C203.453156,94.819359 199.845261,84.648903 196.090576,74.532928 
	C195.384979,72.631828 194.093674,70.948120 193.072662,69.164093 
z"/>
<path fill="#6CAEAC" opacity="1.000000" stroke="none" 
	d="
M174.486298,64.920471 
	C175.085159,65.958176 175.404984,67.221359 175.644409,69.111183 
	C175.149017,70.254471 174.559692,70.707626 174.344955,71.297195 
	C170.542145,81.738274 166.737228,92.179329 163.082047,102.672394 
	C162.655243,103.897636 163.109940,105.429947 163.155991,106.819901 
	C162.053970,106.878281 160.951950,106.936661 159.435242,106.986244 
	C164.082809,93.033623 169.145050,79.089790 174.486298,64.920471 
z"/>
<path fill="#6CAEAC" opacity="1.000000" stroke="none" 
	d="
M158.345718,108.741074 
	C158.260223,109.872467 157.934845,111.259895 157.264923,112.793121 
	C157.315552,111.624977 157.710709,110.311043 158.345718,108.741074 
z"/>
<path fill="#6AADAA" opacity="1.000000" stroke="none" 
	d="
M194.239990,63.543468 
	C193.882050,63.323395 193.521240,62.773674 193.239288,61.863853 
	C193.624481,62.073780 193.930801,62.643799 194.239990,63.543468 
z"/>
<path fill="#6AADAA" opacity="1.000000" stroke="none" 
	d="
M194.838318,64.742950 
	C194.498291,64.864029 194.282867,64.633850 194.183807,64.055969 
	C194.553055,63.901440 194.773972,64.129242 194.838318,64.742950 
z"/>
<path fill="#F3FBFB" opacity="1.000000" stroke="none" 
	d="
M163.379272,106.797806 
	C163.109940,105.429947 162.655243,103.897636 163.082047,102.672394 
	C166.737228,92.179329 170.542145,81.738274 174.344955,71.297195 
	C174.559692,70.707626 175.149017,70.254471 175.780380,69.478165 
	C181.373688,69.230507 186.750595,69.242493 192.600098,69.209290 
	C194.093674,70.948120 195.384979,72.631828 196.090576,74.532928 
	C199.845261,84.648903 203.453156,94.819359 207.240036,105.326576 
	C205.775391,106.041466 204.497849,106.665039 202.994324,107.570129 
	C201.040375,109.806389 199.312393,111.761139 197.504684,113.806068 
	C196.201828,112.015282 194.905869,109.807175 193.204590,107.975517 
	C188.093018,102.472153 181.963074,102.296242 176.661545,107.551338 
	C174.692627,109.503006 173.176666,111.911644 171.231903,113.742950 
	C170.873184,113.046181 170.631409,112.844414 170.284332,112.768715 
	C170.284332,112.768715 170.101608,112.832726 170.158447,112.510193 
	C169.899307,111.730865 169.583344,111.274063 169.267380,110.817261 
	C169.267380,110.817261 169.008194,110.865593 169.090317,110.542511 
	C168.777039,109.824532 168.381622,109.429634 167.986221,109.034729 
	C167.986221,109.034729 168.001450,108.998543 167.852325,108.690811 
	C166.480927,107.885521 165.258652,107.387962 164.036377,106.890404 
	C164.036377,106.890404 163.602554,106.775696 163.379272,106.797806 
z"/>
<path fill="#6CAEAC" opacity="1.000000" stroke="none" 
	d="
M164.088303,107.253448 
	C165.258652,107.387962 166.480927,107.885521 167.834320,108.698616 
	C166.690384,108.548271 165.415298,108.082390 164.088303,107.253448 
z"/>
<path fill="#6CAEAC" opacity="1.000000" stroke="none" 
	d="
M168.007843,109.338577 
	C168.381622,109.429634 168.777039,109.824532 169.218719,110.508102 
	C168.853149,110.411987 168.441315,110.027214 168.007843,109.338577 
z"/>
<path fill="#6CAEAC" opacity="1.000000" stroke="none" 
	d="
M169.210083,111.136818 
	C169.583344,111.274063 169.899307,111.730865 170.253311,112.471970 
	C169.911835,112.322975 169.532303,111.889671 169.210083,111.136818 
z"/>
<path fill="#6CAEAC" opacity="1.000000" stroke="none" 
	d="
M170.289627,113.020050 
	C170.631409,112.844414 170.873184,113.046181 171.032730,113.614761 
	C170.688477,113.808968 170.434845,113.614250 170.289627,113.020050 
z"/>
</svg>